<?xml version="1.0" encoding="UTF-8" standalone="no"?>
<svg width="128" height="128" viewBox="0 0 128 128" xmlns="http://www.w3.org/2000/svg">
  <g>
    <path fill="#0F1689" d="M64,0 C28.7,0 0,28.7 0,64 C0,99.3 28.7,128 64,128 C99.3,128 128,99.3 128,64 C128,28.7 99.3,0 64,0"/>
    <path fill="#FFFFFF" d="M103.8,77.9 L83.6,77.9 C83.1,77.9 82.6,78.2 82.4,78.6 C81.4,81.2 80.2,83.6 78.8,85.8 C78.5,86.2 78.6,86.7 78.9,87.1 L93.2,101.4 C94.7,102.9 94.7,105.3 93.2,106.8 C91.7,108.3 89.3,108.3 87.8,106.8 L73.5,92.5 C73.1,92.1 72.6,92 72.2,92.3 C70,93.7 67.5,94.9 65,95.9 C64.5,96.1 64.2,96.6 64.2,97.1 L64.2,117.3 C64.2,119.4 62.5,121.1 60.4,121.1 C58.3,121.1 56.6,119.4 56.6,117.3 L56.6,97.1 C56.6,96.6 56.3,96.1 55.9,95.9 C53.3,94.9 50.9,93.7 48.7,92.3 C48.3,92 47.8,92.1 47.4,92.5 L33.1,106.8 C31.6,108.3 29.2,108.3 27.7,106.8 C26.2,105.3 26.2,102.9 27.7,101.4 L42,87.1 C42.4,86.7 42.4,86.2 42.1,85.8 C40.7,83.6 39.5,81.2 38.5,78.6 C38.3,78.2 37.8,77.9 37.3,77.9 L17.1,77.9 C15,77.9 13.3,76.2 13.3,74.1 C13.3,72 15,70.3 17.1,70.3 L37.3,70.3 C37.8,70.3 38.3,70 38.5,69.6 C39.5,67 40.7,64.6 42.1,62.4 C42.4,62 42.3,61.5 42,61.1 L27.7,46.8 C26.2,45.3 26.2,42.9 27.7,41.4 C29.2,39.9 31.6,39.9 33.1,41.4 L47.4,55.7 C47.8,56.1 48.3,56.2 48.7,55.9 C50.9,54.5 53.4,53.3 55.9,52.3 C56.4,52.1 56.7,51.6 56.7,51.1 L56.7,30.9 C56.7,28.8 58.4,27.1 60.5,27.1 C62.6,27.1 64.3,28.8 64.3,30.9 L64.3,51.1 C64.3,51.6 64.6,52.1 65,52.3 C67.6,53.3 70,54.5 72.2,55.9 C72.6,56.2 73.1,56.1 73.5,55.7 L87.8,41.4 C89.3,39.9 91.7,39.9 93.2,41.4 C94.7,42.9 94.7,45.3 93.2,46.8 L78.9,61.1 C78.5,61.5 78.5,62 78.8,62.4 C80.2,64.6 81.4,67 82.4,69.6 C82.6,70 83.1,70.3 83.6,70.3 L103.8,70.3 C105.9,70.3 107.6,72 107.6,74.1 C107.6,76.2 105.9,77.9 103.8,77.9"/>
  </g>
</svg>